<svg xmlns="http://www.w3.org/2000/svg" xmlns:xlink="http://www.w3.org/1999/xlink" viewBox="0,0,256,256" width="50px" height="50px" fill-rule="nonzero"><g fill="#ffffff" fill-rule="nonzero" stroke="none" stroke-width="1" stroke-linecap="butt" stroke-linejoin="miter" stroke-miterlimit="10" stroke-dasharray="" stroke-dashoffset="0" font-family="none" font-weight="none" font-size="none" text-anchor="none" style="mix-blend-mode: normal"><g transform="scale(5.12,5.12)"><path d="M8.90625,2c-3.76172,0 -6.8125,3.16406 -6.8125,6.90625c0,2.90234 1.86719,5.39063 4.59375,6.25c-0.70312,3.41016 0.18359,7.12109 2.8125,9.75l0.1875,0.1875l-0.125,0.0625l-0.09375,0.0625l-0.0625,0.0625c-2.54687,2.54688 -3.52734,6.11328 -2.96875,9.4375c-2.57031,1.05469 -4.4375,3.44141 -4.4375,6.375c0,3.74219 3.0625,6.90625 6.90625,6.90625c2.93359,0 5.33984,-1.875 6.3125,-4.53125c3.29297,0.53516 6.76563,-0.42969 9.375,-2.9375v-0.03125l0.09375,-0.09375l0.21875,0.1875c2.62891,2.62891 6.36719,3.60156 9.875,2.8125c0.93359,2.66406 3.40234,4.59375 6.40625,4.59375c3.74219,0 6.90625,-3.0625 6.90625,-6.90625v-0.03125c-0.10547,-3.12109 -2.25391,-5.60937 -5.125,-6.4375c0.51953,-3.28125 -0.45312,-6.70312 -2.96875,-9.21875l-0.1875,-0.21875l0.09375,-0.09375c2.62109,-2.62109 3.49219,-6.24219 2.875,-9.625c2.875,-0.83203 5.03125,-3.33203 5.03125,-6.46875c0,-3.74219 -3.0625,-6.90625 -6.90625,-6.90625c-3.12891,0 -5.62891,2.14063 -6.46875,5c-3.40234,-0.69141 -7.02344,0.27734 -9.71875,2.875l-0.1875,-0.15625c-0.01172,-0.01172 -0.01953,-0.01953 -0.03125,-0.03125c-2.44141,-2.51953 -5.87891,-3.39062 -9.125,-2.9375c-0.84766,-2.8125 -3.42187,-4.84375 -6.46875,-4.84375zM8.90625,4c2.41797,0 4.48438,1.73828 4.8125,4.03125l0.15625,1.0625l1.03125,-0.21875c2.89453,-0.63281 6.05078,0.08594 8.1875,2.3125v0.03125l0.09375,0.09375l-2.875,2.875l-0.09375,-0.09375c-1.78906,-1.78906 -4.74219,-1.78906 -6.53125,0c-1.78906,1.78906 -1.78906,4.71094 0,6.5l0.0625,0.0625l0.21875,0.1875l-0.0625,0.0625l5,5l0.6875,0.71875l0.09375,-0.125l3.59375,3.59375l-2.875,2.90625l-4.40625,-4.40625l-4.28125,-4.3125l-0.25,-0.21875l-0.5625,-0.5625c-2.32812,-2.32812 -3.05078,-5.76562 -2.15625,-8.71875l0.34375,-1.09375l-1.15625,-0.1875c-2.30859,-0.32812 -3.84375,-2.24609 -3.84375,-4.59375c0,-2.66016 2.17578,-4.90625 4.8125,-4.90625zM40.90625,4.09375c2.75391,0 4.90625,2.24609 4.90625,4.90625c0,2.51172 -1.82031,4.47656 -4.25,4.8125l-1.125,0.15625l0.3125,1.09375c0.80859,2.97266 0.08594,6.28906 -2.25,8.625l-0.09375,0.09375l-2.90625,-2.875l0.09375,-0.09375c1.78906,-1.78906 1.78906,-4.74219 0,-6.53125c-1.78906,-1.78906 -4.71094,-1.78906 -6.5,0l-0.8125,0.8125l-4.28125,4.3125l-0.71875,0.6875l0.03125,0.03125l-3.59375,3.5625l-2.9375,-2.90625l4.21875,-4.28125l4.3125,-4.28125l0.78125,-0.8125c2.45313,-2.36328 5.77734,-3.14062 8.71875,-2.25l1.125,0.34375l0.15625,-1.15625c0.33594,-2.42969 2.30078,-4.25 4.8125,-4.25zM16.9375,14.75c0.66797,0 1.33594,0.24219 1.84375,0.75l0.21875,0.21875l-3.65625,3.6875l-0.25,-0.21875l-0.03125,-0.03125c-0.98047,-1.01562 -0.97266,-2.65234 0.03125,-3.65625c0.50781,-0.50781 1.17578,-0.75 1.84375,-0.75zM32.34375,14.9375c0.66797,0 1.33594,0.27344 1.84375,0.78125c1.01172,1.01172 1.01172,2.67578 0,3.6875l-0.0625,0.09375l-3.6875,-3.6875l0.0625,-0.09375c0.50781,-0.50781 1.17578,-0.78125 1.84375,-0.78125zM29,17.21875l3.6875,3.6875l0.71875,0.6875l4.15625,4.1875l1.03125,1.03125c2.25391,2.25391 3.05859,5.38672 2.34375,8.25l-0.28125,1.0625l1.09375,0.15625c2.42188,0.33203 4.24609,2.29688 4.34375,4.8125c0,0.01172 0,0.01953 0,0.03125c-0.01562,2.73828 -2.25781,4.875 -4.90625,4.875c-2.44141,0 -4.40234,-1.65234 -4.8125,-3.875l-0.1875,-1.125l-1.09375,0.34375c-3.01172,0.97656 -6.38281,0.19531 -8.71875,-2.09375l-0.25,-0.25l2.875,-2.875l0.125,0.125c1.78906,1.75391 4.69141,1.74609 6.46875,-0.03125c1.76563,-1.76562 1.78906,-4.67578 0.0625,-6.46875l-0.0625,-0.0625l-0.0625,-0.09375l0.09375,-0.09375l-0.71875,-0.71875l-4.3125,-4.28125l-0.6875,-0.71875l-0.0625,0.0625l-3.71875,-3.71875zM24.6875,21.5l3.75,3.75l-3.59375,3.59375l-3.71875,-3.75zM11.0625,26.5625l2.96875,3l-0.125,0.125c-1.78906,1.78906 -1.78906,4.74219 0,6.53125c1.78906,1.78906 4.71094,1.78906 6.5,0l0.03125,-0.03125v-0.03125l0.78125,-0.84375l0.03125,-0.0625l4.125,-4.09375l0.125,-0.15625l4.34375,-4.34375l2.90625,2.90625l-3.75,3.75l-0.125,-0.15625l-0.6875,0.75l-3.96875,4.15625l-0.25,0.25l-0.75,0.78125h-0.03125c-2.35937,2.25781 -5.48828,3.05859 -8.34375,2.34375l-1,-0.25l-0.21875,1c-0.50391,2.26953 -2.37109,3.8125 -4.71875,3.8125c-2.75391,0 -4.90625,-2.24609 -4.90625,-4.90625c0,-2.34766 1.5625,-4.25391 3.75,-4.84375l0.96875,-0.25l-0.25,-0.9375c-0.71094,-2.85156 0.11328,-6.06641 2.34375,-8.3125c0.00781,-0.00781 -0.00781,-0.02344 0,-0.03125zM15.5,30.90625l3.6875,3.6875l-0.1875,0.1875c-1.01172,1.01172 -2.67578,1.01172 -3.6875,0c-1.01172,-1.01172 -1.01172,-2.67578 0,-3.6875zM34.125,31l0.03125,0.0625l0.03125,0.03125c1.01172,1.01172 1.01172,2.67578 0,3.6875c-1.01172,1.01172 -2.67578,1.01172 -3.6875,0l-0.09375,-0.0625z"></path></g></g></svg>