<?xml version="1.0" standalone="no"?>
<!DOCTYPE svg PUBLIC "-//W3C//DTD SVG 20010904//EN"
 "http://www.w3.org/TR/2001/REC-SVG-20010904/DTD/svg10.dtd">
<svg version="1.0" xmlns="http://www.w3.org/2000/svg"
 width="736.000000pt" height="1104.000000pt" viewBox="0 0 736.000000 1104.000000"
 preserveAspectRatio="xMidYMid meet">

<g transform="translate(0.000000,1104.000000) scale(0.100000,-0.100000)"
fill="#000000" stroke="none">
<path d="M7268 10852 c9 -488 -125 -939 -406 -1372 -93 -144 -180 -249 -326
-395 -290 -289 -572 -457 -986 -587 -344 -107 -754 -160 -1475 -188 -701 -28
-1087 -70 -1425 -155 -764 -192 -1427 -659 -1852 -1305 -146 -221 -260 -494
-314 -755 -24 -113 -27 -154 -28 -310 -1 -195 11 -281 60 -430 98 -302 316
-574 614 -767 152 -99 384 -198 578 -248 l44 -11 -164 -167 c-183 -187 -295
-313 -596 -671 -113 -135 -269 -318 -346 -406 -150 -172 -475 -505 -580 -595
-36 -30 -65 -63 -65 -73 -1 -26 64 30 263 223 186 181 398 417 716 794 370
440 588 683 737 821 l73 67 92 -16 c319 -53 687 -43 1093 28 348 62 507 116
633 215 189 150 216 433 53 557 -182 139 -596 76 -1061 -162 -225 -115 -482
-291 -684 -470 -49 -44 -101 -89 -116 -101 l-27 -22 -91 24 c-571 153 -1011
542 -1148 1014 -131 452 -18 989 311 1481 105 157 167 235 305 381 361 385
861 691 1375 843 369 109 743 156 1485 186 949 39 1343 100 1782 276 853 342
1464 1220 1505 2163 7 167 -3 321 -20 321 -9 0 -11 -50 -9 -188z m-3712 -5722
c122 -42 186 -131 185 -257 0 -77 -18 -136 -61 -203 -105 -164 -315 -249 -800
-324 -253 -39 -410 -49 -645 -43 -188 5 -399 27 -414 43 -15 15 308 275 504
406 169 112 436 249 594 303 294 101 497 125 637 75z"/>
</g>
</svg>
