<?xml version="1.0" encoding="UTF-8"?>
<svg version="1.1" xmlns="http://www.w3.org/2000/svg" width="500" height="250">
<path d="M0 0 C0 0.66 0 1.32 0 2 C-1.84375 3.26953125 -1.84375 3.26953125 -4.5 4.8125 C-9.55660004 7.93321859 -14.1131873 11.39953662 -18.6875 15.1875 C-24.02598189 19.60557585 -29.42650562 23.881978 -35 28 C-41.17897242 32.57617617 -47.18122369 37.32987282 -53.12744141 42.20385742 C-57.50461771 45.79111462 -61.9174243 49.32565815 -66.375 52.8125 C-66.95596436 53.26705566 -67.53692871 53.72161133 -68.13549805 54.18994141 C-68.97914917 54.85002197 -68.97914917 54.85002197 -69.83984375 55.5234375 C-74.25602822 58.97889428 -78.62691552 62.49027125 -83 66 C-85.70771734 68.16743686 -88.41638838 70.33368087 -91.125 72.5 C-92.44011944 73.55206424 -93.75522487 74.604146 -95.0703125 75.65625 C-96.03710938 76.4296875 -97.00390625 77.203125 -98 78 C-93.05 77.67 -88.1 77.34 -83 77 C-86.86220263 79.89665197 -88.18196422 80.31693889 -92.73510742 80.76953125 C-102.9271158 81.83607109 -108.21322975 85.50285325 -115.39648438 92.50048828 C-118.08530538 95.01491255 -121.01299456 97.20687639 -123.9375 99.4375 C-129.42096844 103.68734053 -134.71594836 108.11995455 -139.96069336 112.65991211 C-143.43101835 115.66239382 -146.93557596 118.60879807 -150.5 121.5 C-155.34390897 125.43211434 -160.07804953 129.47986226 -164.80200195 133.55419922 C-168.38484119 136.63727882 -172.00943664 139.65526553 -175.6875 142.625 C-180.37019705 146.42326379 -184.80653364 150.44162497 -189.2421875 154.5234375 C-192.84451342 157.75838741 -196.58915559 160.7930736 -200.36328125 163.82421875 C-202.93501668 165.94637672 -205.37103635 168.16779761 -207.8125 170.4375 C-211.02813881 173.34661209 -213.65540362 175.10880074 -218 176 C-210.16015683 166.14419715 -200.3962643 158.00206467 -190.61328125 150.14453125 C-188.00152377 148.00125044 -185.49634698 145.7761967 -183 143.5 C-178.77635723 139.65489125 -174.4130207 136.03241829 -169.97265625 132.44140625 C-166.66249176 129.72280861 -163.4249179 126.92929904 -160.1875 124.125 C-154.99341603 119.63525884 -149.6777112 115.34875048 -144.25073242 111.14501953 C-139.46057275 107.41362476 -134.86424717 103.48760802 -130.28076172 99.50683594 C-124.03311153 94.10929035 -117.53384463 89.04436637 -111 84 C-116.11699895 84.52529579 -121.22615873 85.09740164 -126.33447266 85.70117188 C-128.97459651 85.99715205 -131.61619412 86.24212707 -134.26171875 86.484375 C-145.53705165 87.65637439 -151.75740742 89.86796381 -160 98 C-162.22547591 99.85101331 -164.5175393 101.61130922 -166.8125 103.375 C-168.01251354 104.31278594 -169.21172908 105.25159388 -170.41015625 106.19140625 C-171.00715332 106.65820801 -171.60415039 107.12500977 -172.21923828 107.60595703 C-174.50036237 109.39170128 -176.77633054 111.18394397 -179.05224609 112.97631836 C-181.39352967 114.81897655 -183.73776445 116.65785586 -186.08251953 118.49609375 C-187.40963705 119.53697024 -188.73609089 120.57869328 -190.06201172 121.62109375 C-200.84186216 130.09045232 -211.75144945 138.35629259 -222.83691406 146.421875 C-224.80188339 147.85545984 -226.75756115 149.3006864 -228.7109375 150.75 C-262.03967408 175.29018774 -262.03967408 175.29018774 -278 175 C-280.99795835 173.66048669 -282.52779875 172.9444025 -284 170 C-285.37146584 156.87311264 -281.2743049 147.0856603 -273.3515625 136.7890625 C-245.70612241 104.00028472 -202.69168708 92.97923888 -161.859375 86.87451172 C-151.53946049 85.23873752 -145.64444931 81.90822161 -137.9375 75 C-136.61632781 73.83413389 -135.29470278 72.66878079 -133.97265625 71.50390625 C-132.97903076 70.62436279 -132.97903076 70.62436279 -131.96533203 69.72705078 C-129.53757175 67.59363758 -127.07711327 65.50096599 -124.61206055 63.41088867 C-118.22126751 57.99016682 -112.02707549 52.38978648 -105.89453125 46.6796875 C-102.32681024 43.3767771 -98.67018023 40.18764658 -95 37 C-88.87072251 31.66850148 -83.13186319 26.30691598 -78 20 C-77.34515625 19.19820312 -76.6903125 18.39640625 -76.015625 17.5703125 C-72.4424034 13.71533254 -72.4424034 13.71533254 -71 9 C-78.06005581 9.25214485 -83.83476875 11.23785338 -90.32617188 13.82861328 C-93.86738666 15.2373258 -97.22704341 16.41504549 -101 17 C-98.23011695 14.77190434 -95.64470405 13.28903564 -92.33984375 11.9921875 C-91.0259668 11.47205078 -91.0259668 11.47205078 -89.68554688 10.94140625 C-88.77869141 10.58949219 -87.87183594 10.23757812 -86.9375 9.875 C-86.02677734 9.51535156 -85.11605469 9.15570313 -84.17773438 8.78515625 C-74.22156305 4.86725243 -74.22156305 4.86725243 -68.8125 4.9375 C-67.91144531 4.94652344 -67.01039063 4.95554687 -66.08203125 4.96484375 C-65.39496094 4.97644531 -64.70789063 4.98804688 -64 5 C-64.73496612 14.42623217 -70.85732564 20.46131027 -77.8125 26.4375 C-78.78123047 27.23994141 -78.78123047 27.23994141 -79.76953125 28.05859375 C-82.65581556 30.5708237 -85.31571111 33.27525492 -88 36 C-91.86234485 39.90604466 -95.76745333 43.67136523 -99.953125 47.234375 C-102.45714849 49.3943342 -104.87997698 51.63487993 -107.3125 53.875 C-111.73877406 57.91268484 -116.29040995 61.73236814 -120.953125 65.4921875 C-125.36716875 69.12528505 -129.66542468 72.88850053 -133.96191406 76.65942383 C-134.57260742 77.1933374 -135.18330078 77.72725098 -135.8125 78.27734375 C-136.35519531 78.75421631 -136.89789063 79.23108887 -137.45703125 79.72241211 C-139 81 -139 81 -142 83 C-137.65815741 82.75832354 -133.32989359 82.39742108 -129 82 C-128.09443359 81.91911133 -127.18886719 81.83822266 -126.25585938 81.75488281 C-123.22930955 81.47020733 -120.20912833 81.14513202 -117.1875 80.8125 C-116.20966553 80.72379639 -115.23183105 80.63509277 -114.22436523 80.54370117 C-107.21098458 79.72066893 -103.24351242 77.63447849 -98 73 C-96.87718352 72.12365154 -95.74847878 71.25478124 -94.61328125 70.39453125 C-93.51178646 69.53543448 -92.4115522 68.6747194 -91.3125 67.8125 C-90.7151001 67.34400635 -90.1177002 66.8755127 -89.50219727 66.39282227 C-85.40520588 63.15915054 -81.40159823 59.83219971 -77.4375 56.4375 C-71.65214242 51.48713345 -65.68413596 46.82250751 -59.61621094 42.22509766 C-56.94557471 40.20073926 -54.28389963 38.16473156 -51.625 36.125 C-51.08955566 35.71467529 -50.55411133 35.30435059 -50.00244141 34.8815918 C-46.53408929 32.21255828 -43.11450265 29.48952861 -39.71289062 26.73608398 C-33.28551741 21.53903021 -26.75932852 16.49308617 -20.125 11.5625 C-19.35269043 10.98338867 -18.58038086 10.40427734 -17.78466797 9.80761719 C-4.48248096 0 -4.48248096 0 0 0 Z M-258.1328125 126.109375 C-258.62426758 126.60501953 -259.11572266 127.10066406 -259.62207031 127.61132812 C-260.82985014 128.82852367 -262.06518727 130.01824682 -263.3046875 131.203125 C-267.67476939 135.65822794 -270.60642915 140.55112913 -273.4375 146.0625 C-273.95147339 147.0539502 -273.95147339 147.0539502 -274.47583008 148.06542969 C-277.36042762 153.99786226 -278.52838201 159.27002629 -277.25 165.875 C-276.24356447 169.24678339 -276.24356447 169.24678339 -273 171 C-260.61732791 171 -250.79786446 162.79840567 -241 156 C-240.36288086 155.55881836 -239.72576172 155.11763672 -239.06933594 154.66308594 C-224.93683955 144.84791541 -211.17530887 134.57902255 -197.68359375 123.90234375 C-195.04287182 121.81498456 -192.38726581 119.74818329 -189.72265625 117.69140625 C-181.94176226 111.68350243 -174.22102515 105.61579624 -166.625 99.375 C-165.91754639 98.79516357 -165.21009277 98.21532715 -164.48120117 97.61791992 C-161.16474154 94.87662026 -157.97065801 92.12299945 -155 89 C-189.5452604 89 -233.18517379 101.49281346 -258.1328125 126.109375 Z " fill="#D3D3D3" transform="translate(348,24)"/>
<path d="M0 0 C-0.72551911 7.63848417 -8.08093729 12.67512532 -13.6328125 17.38525391 C-17.0705486 20.20692652 -20.59244987 22.91195286 -24.14208984 25.59082031 C-25.99990731 26.9999297 -27.83871072 28.431171 -29.67578125 29.8671875 C-43.49271013 40.57044226 -58.19018978 49.99621914 -73.625 58.1875 C-84.62416872 64.08128955 -97.32034986 73.64069971 -103 85 C-97.95726186 83.56475915 -93.99105588 81.36357017 -89.625 78.5625 C-88.93672119 78.12728027 -88.24844238 77.69206055 -87.53930664 77.24365234 C-81.75881128 73.55782441 -76.09850672 69.70185974 -70.49267578 65.75610352 C-66.44405212 62.9205882 -62.40515986 60.25430925 -58 58 C-57.34 58.33 -56.68 58.66 -56 59 C-66.60403955 67.93234391 -78.09345787 75.37626448 -90 82.4375 C-90.69359619 82.8504834 -91.38719238 83.2634668 -92.10180664 83.68896484 C-103.80417194 90.526524 -103.80417194 90.526524 -111 90 C-110.50736314 85.32844357 -108.63314696 82.90884255 -105.625 79.375 C-104.83351563 78.43398437 -104.04203125 77.49296875 -103.2265625 76.5234375 C-101.53583018 74.6072742 -99.84059791 72.76934896 -98 71 C-98.70125 71.28875 -99.4025 71.5775 -100.125 71.875 C-106.05070108 74.1937526 -110.64096896 75.47992687 -117 75 C-118.125 71.25 -118.125 71.25 -117 69 C-117.94101562 69.433125 -118.88203125 69.86625 -119.8515625 70.3125 C-121.10911419 70.87558284 -122.36694153 71.43805034 -123.625 72 C-124.24246094 72.28617187 -124.85992187 72.57234375 -125.49609375 72.8671875 C-129.50217971 74.63829919 -132.63200469 75.32255965 -137 75 C-136.43945339 71.63672037 -135.58158962 69.00887781 -134 66 C-140.64923884 70.39504613 -147.25223677 74.84869787 -153.8125 79.375 C-155.85564584 80.77884921 -157.89940239 82.18180475 -159.94335938 83.58447266 C-161.31926449 84.53146908 -162.69295437 85.48169179 -164.06445312 86.43505859 C-166.05788061 87.81970056 -168.05928125 89.1920756 -170.0625 90.5625 C-170.65716064 90.97999512 -171.25182129 91.39749023 -171.86450195 91.82763672 C-175.86431495 94.54225836 -179.35926086 95.90632262 -184 97 C-180.54059065 89.12023426 -172.41974761 83.48155789 -166 78 C-164.94635615 77.09405048 -163.89299323 76.18777417 -162.83984375 75.28125 C-159.83147938 72.69398879 -156.81674988 70.11427345 -153.79931641 67.53759766 C-152.6391774 66.54620614 -151.47992905 65.55377096 -150.32177734 64.56005859 C-142.68061213 58.00424697 -134.89252001 51.67973896 -126.93798828 45.50830078 C-124.86797094 43.8972442 -122.8066458 42.27548605 -120.74609375 40.65234375 C-70.77257472 1.3803908 -70.77257472 1.3803908 -59 2 C-69.70190143 21.29686602 -97.70817534 35.1031979 -116.25 46.1875 C-117.11383301 46.70401123 -117.97766602 47.22052246 -118.86767578 47.75268555 C-122.30115788 49.80212579 -125.73637509 51.84640703 -129.19140625 53.859375 C-136.96841754 58.54180802 -143.58143872 64.47549235 -150.32617188 70.50537109 C-152.51423944 72.45918522 -154.72503405 74.38639932 -156.9375 76.3125 C-157.95868424 77.20793331 -158.97969454 78.10356549 -160 79 C-158.45802548 78.02131821 -156.91644929 77.04200884 -155.375 76.0625 C-154.37082031 75.42570312 -153.36664063 74.78890625 -152.33203125 74.1328125 C-150.06798811 72.68361255 -147.8163289 71.22422802 -145.57421875 69.7421875 C-126.21766281 57 -126.21766281 57 -120 57 C-121.52012677 62.40489519 -125.27385218 65.98492628 -129 70 C-123.06399173 69.5739707 -119.07428448 66.92695219 -114.1875 63.8125 C-113.38868408 63.31508301 -112.58986816 62.81766602 -111.7668457 62.30517578 C-107.02916773 59.3408024 -102.34950313 56.30592889 -97.82421875 53.0234375 C-95.59389477 51.77216366 -93.5131511 51.38930051 -91 51 C-91 51.66 -91 52.32 -91 53 C-92.64087874 54.29074548 -94.34018552 55.50761027 -96.0625 56.6875 C-104.14720365 62.27620769 -104.14720365 62.27620769 -110 70 C-95.95128422 69.53170947 -86.60866132 61.42362652 -76.64013672 52.45898438 C-17.66767068 0 -17.66767068 0 0 0 Z M-9 5 C-20.20975104 12.74858297 -31.29824282 20.55841037 -42 29 C-43.14778263 29.8914688 -44.29624263 30.78206602 -45.4453125 31.671875 C-53.47648007 37.9095035 -61.28587424 44.37507804 -69 51 C-68.34 51.33 -67.68 51.66 -67 52 C-48.62368926 40.0303411 -48.62368926 40.0303411 -31 27 C-29.64841797 25.93458984 -29.64841797 25.93458984 -28.26953125 24.84765625 C-21.2304599 19.19852847 -14.5931808 13.1559367 -8 7 C-8.495 6.01 -8.495 6.01 -9 5 Z M-71 8 C-71.33 8.66 -71.66 9.32 -72 10 C-71.01 9.67 -70.02 9.34 -69 9 C-69.66 8.67 -70.32 8.34 -71 8 Z M-77.39453125 12.28125 C-78.09328369 12.78615967 -78.79203613 13.29106934 -79.51196289 13.8112793 C-80.27114014 14.36855713 -81.03031738 14.92583496 -81.8125 15.5 C-82.5955249 16.07081299 -83.3785498 16.64162598 -84.18530273 17.22973633 C-90.6873184 21.99149724 -97.13602945 26.82440422 -103.5625 31.6875 C-104.94562378 32.72970703 -104.94562378 32.72970703 -106.35668945 33.79296875 C-107.209646 34.44265625 -108.06260254 35.09234375 -108.94140625 35.76171875 C-109.70138916 36.33881592 -110.46137207 36.91591309 -111.24438477 37.51049805 C-113.11257244 38.89789021 -113.11257244 38.89789021 -114 41 C-110.53584146 39.72349119 -107.65027281 38.24477238 -104.62890625 36.12890625 C-103.81349365 35.55962402 -102.99808105 34.9903418 -102.15795898 34.40380859 C-101.30145752 33.79617676 -100.44495605 33.18854492 -99.5625 32.5625 C-98.67957275 31.93939941 -97.79664551 31.31629883 -96.88696289 30.67431641 C-91.49269645 26.84132926 -86.15968226 22.93967734 -80.9375 18.875 C-80.37297119 18.43873291 -79.80844238 18.00246582 -79.22680664 17.55297852 C-76.3620631 15.28170642 -74.03009773 13.04865888 -72 10 C-74.56183686 10 -75.33198996 10.78399377 -77.39453125 12.28125 Z M-116 41 C-116.33 41.66 -116.66 42.32 -117 43 C-116.01 42.67 -115.02 42.34 -114 42 C-114.66 41.67 -115.32 41.34 -116 41 Z M-71 52 C-71.33 52.66 -71.66 53.32 -72 54 C-71.01 53.67 -70.02 53.34 -69 53 C-69.66 52.67 -70.32 52.34 -71 52 Z M-163 80 C-163.33 80.66 -163.66 81.32 -164 82 C-163.01 81.67 -162.02 81.34 -161 81 C-161.66 80.67 -162.32 80.34 -163 80 Z " fill="#D0D0D0" transform="translate(471,58)"/>
<path d="M0 0 C-1 3 -1 3 -3.3125 4.625 C-6.0226917 7.02005313 -6.53051417 7.95614353 -7.75 11.1875 C-10.13246124 17.09016928 -14.39075997 20.75982723 -19 25 C-20.02673055 26.01490185 -21.04893211 27.03445257 -22.0625 28.0625 C-22.701875 28.701875 -23.34125 29.34125 -24 30 C-19.74371067 30 -16.66545496 27.96464565 -13 26 C-12.24050049 25.59644287 -11.48100098 25.19288574 -10.69848633 24.77709961 C-5.17842839 21.78280306 -0.16203267 18.48541001 4.80078125 14.62890625 C6.82698586 13.12814724 8.66808778 11.95149907 11 11 C13.25 11.375 13.25 11.375 15 12 C10.25 16 10.25 16 8 16 C8 17.175625 8 18.35125 8 19.5625 C7.37672286 24.39503237 5.12765439 26.46014871 1.390625 29.390625 C-4.11933642 33.09994543 -9.19300485 36.39898906 -16 36 C-15.67 34.35 -15.34 32.7 -15 31 C-15.78503906 31.3609375 -16.57007813 31.721875 -17.37890625 32.09375 C-27.81370826 36.7029877 -27.81370826 36.7029877 -34 36 C-32.70130715 29.72779453 -29.05138762 26.7941132 -24.4375 22.75 C-23.05910032 21.51796778 -21.68269504 20.28369944 -20.30859375 19.046875 C-19.69814209 18.50901367 -19.08769043 17.97115234 -18.45874023 17.41699219 C-16.88425975 16.04349064 -16.88425975 16.04349064 -16 14 C-17.22964478 14.83023682 -17.22964478 14.83023682 -18.48413086 15.67724609 C-68.93230157 49.70070132 -68.93230157 49.70070132 -76.796875 48.61328125 C-77.52390625 48.41089844 -78.2509375 48.20851562 -79 48 C-77.51565156 40.76380134 -72.04269622 36.04269622 -67 31 C-68.0725 31.495 -69.145 31.99 -70.25 32.5 C-73.25416808 33.88653911 -74.45934895 34 -78 34 C-77.69073107 30.78922619 -77.23294755 29.26106999 -75.05859375 26.82421875 C-69.58511354 22.36223115 -64.07648878 18.68139064 -57.8125 15.4375 C-57.16015381 15.09098389 -56.50780762 14.74446777 -55.83569336 14.38745117 C-50.98667383 12.00471701 -47.38357153 11.73281113 -42 12 C-39.15284501 11.56645435 -39.15284501 11.56645435 -37 11 C-40.52635485 15.52062783 -44.17744291 18.94261785 -48.75 22.375 C-49.99500421 23.33397431 -51.2384928 24.29491948 -52.48046875 25.2578125 C-53.08165527 25.72348633 -53.6828418 26.18916016 -54.30224609 26.66894531 C-60.5171737 31.54150575 -65.70662324 36.35219083 -70 43 C-66.0488476 42.33342417 -62.92849372 40.36829263 -59.5625 38.3125 C-58.91780762 37.92167236 -58.27311523 37.53084473 -57.60888672 37.12817383 C-44.96038248 29.37083995 -32.70123409 20.9646988 -20.5625 12.4375 C-19.8833252 11.96143311 -19.20415039 11.48536621 -18.50439453 10.99487305 C-14.5080625 8.16199822 -10.74715803 5.15376644 -7 2 C-4.23640286 0.34184172 -3.28396216 0 0 0 Z M-70 28 C-69.01 28.495 -69.01 28.495 -68 29 C-65.15045552 27.74315252 -62.56960217 25.97042708 -59.9375 24.3125 C-59.19177734 23.86455078 -58.44605469 23.41660156 -57.67773438 22.95507812 C-56.96810547 22.51228516 -56.25847656 22.06949219 -55.52734375 21.61328125 C-54.54882446 21.00673706 -54.54882446 21.00673706 -53.55053711 20.38793945 C-51.66047534 18.69607972 -51.37572829 17.46864971 -51 15 C-57.02214953 15 -65.70154836 24.08363295 -70 28 Z M-2 22 C-5.73884332 24.65654657 -7.64978174 26.58110387 -9 31 C-5.79478405 31.3166189 -5.79478405 31.3166189 -3.25 28.75 C-0.70727995 26.2909826 -0.70727995 26.2909826 -1.1875 23.6875 C-1.455625 23.130625 -1.72375 22.57375 -2 22 Z " fill="#D0D0D0" transform="translate(311,97)"/>
<path d="M0 0 C-0.82910889 0.4218457 -1.65821777 0.84369141 -2.51245117 1.27832031 C-29.20984317 14.70899538 -29.20984317 14.70899538 -54.9296875 29.88671875 C-55.61289063 30.25410156 -56.29609375 30.62148437 -57 31 C-57.66 30.67 -58.32 30.34 -59 30 C-48.34325785 22.24321202 -37.13643977 15.92534023 -25.32421875 10.13671875 C-22.22241619 8.61563559 -19.14798553 7.04911908 -16.08203125 5.45703125 C-15.26621582 5.03728027 -14.45040039 4.6175293 -13.60986328 4.18505859 C-12.01969717 3.3660958 -10.43327345 2.53981691 -8.85107422 1.70556641 C-3.33721981 -1.1124066 -3.33721981 -1.1124066 0 0 Z " fill="#D4D4D4" transform="translate(247,42)"/>
<path d="M0 0 C-0.33 1.65 -0.66 3.3 -1 5 C-2.98 5.33 -4.96 5.66 -7 6 C-6.625 3.5625 -6.625 3.5625 -6 1 C-4 0 -4 0 0 0 Z " fill="#D3D3D3" transform="translate(391,99)"/>
</svg>
