<svg version="1.1" id="Layer_1" xmlns="http://www.w3.org/2000/svg" xmlns:xlink="http://www.w3.org/1999/xlink" x="0px" y="0px"
	 width="100%" viewBox="0 0 360 150" enable-background="new 0 0 360 150" xml:space="preserve">
<path fill="none" opacity="1.000000" stroke="#000000" stroke-linecap="round" stroke-linejoin="round" stroke-width="3.000000"
	d="
M321.000000,55.500000 
	C322.900787,56.712952 323.394165,54.681293 324.509674,54.016220 
	C332.168030,49.450130 337.556610,42.692947 342.488892,35.492382 
	C342.906128,34.883213 343.284821,34.198948 343.477478,33.493839 
	C344.019165,31.511484 345.667877,29.373222 343.468658,27.537546 
	C341.479553,25.877232 339.072754,26.979954 337.569275,28.093527 
	C330.967621,32.983051 325.934814,39.215492 322.995270,46.998215 
	C322.361115,48.677162 321.117828,50.326538 321.097076,52.001202 
	C321.016754,58.490391 315.399170,59.439148 311.420990,61.870739 
	C310.434570,62.473660 308.202881,62.713863 306.996796,61.002251 
	C305.773254,59.265865 306.718842,58.096382 308.000000,57.000000 
"/>
<path fill="none" opacity="1.000000" stroke="#000000" stroke-linecap="round" stroke-linejoin="round" stroke-width="4.000000"
	d="
M88.500000,58.500000 
	C67.618103,58.511745 46.722519,58.828812 25.996262,55.523438 
	C24.858532,55.341995 23.666666,55.500000 22.500000,55.500000 
"/>
<path fill="none" opacity="1.000000" stroke="#000000" stroke-linecap="round" stroke-linejoin="round" stroke-width="3.000000"
	d="
M160.500000,1.500000 
	C158.140396,2.072160 157.787079,4.483888 157.121231,6.051493 
	C149.767395,23.364407 141.407883,40.191826 133.016876,57.008423 
	C132.717316,57.608780 132.873001,58.731911 132.469391,58.940868 
	C125.114342,62.748631 125.114426,70.804451 122.086258,77.041878 
	C119.186623,83.014526 117.000008,89.333336 114.500008,95.500000 
"/>
<path fill="none" opacity="1.000000" stroke="#000000" stroke-linecap="round" stroke-linejoin="round" stroke-width="3.000000"
	d="
M204.000000,5.000000 
	C193.539993,22.096510 184.712769,40.017033 177.000000,58.500000 
"/>
<path fill="none" opacity="1.000000" stroke="#000000" stroke-linecap="round" stroke-linejoin="round" stroke-width="3.000000"
	d="
M176.000000,59.500000 
	C170.833328,58.692005 165.689545,58.912319 160.494995,59.451736 
	C151.179428,60.419086 141.833328,60.323135 132.500000,59.500000 
"/>
<path fill="none" opacity="1.000000" stroke="#000000" stroke-linecap="round" stroke-linejoin="round" stroke-width="3.000000"
	d="
M126.000000,60.500000 
	C125.763390,54.201817 124.490784,52.412891 118.516068,53.133286 
	C108.789848,54.306011 99.166664,56.333332 89.500000,58.000000 
"/>
<path fill="none" opacity="1.000000" stroke="#000000" stroke-linecap="round" stroke-linejoin="round" stroke-width="3.000000"
	d="
M127.000000,61.500000 
	C125.125168,59.735374 122.776962,60.005016 120.500000,60.003040 
	C111.833344,59.995514 103.166611,60.015999 94.500046,59.986374 
	C92.786469,59.980518 90.941254,60.460384 89.500000,59.000000 
"/>
<path fill="none" opacity="1.000000" stroke="#000000" stroke-linecap="round" stroke-linejoin="round" stroke-width="3.000000"
	d="
M243.000000,54.000000 
	C241.242294,57.719051 238.075119,59.891628 234.484619,61.464897 
	C232.037277,62.537262 229.653290,62.807232 229.509979,58.999626 
	C229.422623,56.679298 229.942886,53.761074 226.000000,56.000000 
	C225.828720,55.171276 224.802734,55.643539 224.336548,54.571049 
	C223.349380,52.300011 220.851334,52.318691 219.036804,53.554066 
	C212.749222,57.834820 205.431503,57.136536 198.488647,57.896297 
	C191.206055,58.693245 183.833328,58.666664 176.500000,58.999996 
"/>
<path fill="none" opacity="1.000000" stroke="#000000" stroke-linecap="round" stroke-linejoin="round" stroke-width="3.000000"
	d="
M292.000000,39.500000 
	C289.270325,39.504555 288.442230,41.829224 286.972595,43.475540 
	C280.378113,50.862877 274.058502,58.605949 264.494049,62.485321 
	C264.207794,62.601421 263.833344,62.500000 263.500000,62.500000 
"/>
<path fill="none" opacity="1.000000" stroke="#000000" stroke-linecap="round" stroke-linejoin="round" stroke-width="3.000000"
	d="
M306.000000,59.500000 
	C302.106445,60.269207 299.076019,64.347000 294.488586,62.611553 
	C293.052856,60.209194 294.752014,58.160412 295.054352,56.018707 
	C291.636566,54.842400 284.412689,56.915916 281.969543,59.470882 
	C279.673767,61.871723 278.509979,65.230873 275.500000,67.000000 
"/>
<path fill="none" opacity="1.000000" stroke="#000000" stroke-linecap="round" stroke-linejoin="round" stroke-width="3.000000"
	d="
M342.500000,56.500004 
	C339.666656,58.333340 336.998749,60.521873 333.968781,61.932938 
	C325.126312,66.050827 322.758209,64.455574 319.500000,58.000000 
"/>
<path fill="none" opacity="1.000000" stroke="#000000" stroke-linecap="round" stroke-linejoin="round" stroke-width="3.000000"
	d="
M304.000000,24.000000 
	C299.475281,30.001930 294.025482,35.248051 291.793732,42.940151 
	C290.631287,46.946537 287.500031,50.457466 284.911346,53.933987 
	C283.980896,55.183571 284.105652,56.268280 284.000000,57.500000 
"/>
<path fill="none" opacity="1.000000" stroke="#000000" stroke-linecap="round" stroke-linejoin="round" stroke-width="3.000000"
	d="
M224.500000,56.000000 
	C221.585602,59.792488 216.685852,60.092422 213.038361,62.556778 
	C211.796570,63.395771 211.000000,62.626701 210.000000,62.500000 
	C210.245056,61.513065 209.463516,60.362549 210.497238,59.496708 
	C211.112457,58.981422 211.734650,58.450661 211.500000,57.500000 
"/>
<path fill="none" opacity="1.000000" stroke="#000000" stroke-linecap="round" stroke-linejoin="round" stroke-width="3.000000"
	d="
M262.000000,53.000000 
	C259.569672,56.895679 256.273010,59.782604 251.996735,61.491814 
	C249.821381,62.361286 246.732590,62.834522 246.736801,60.000351 
	C246.742447,56.208241 243.894409,57.596870 242.500000,56.500000 
"/>
<path fill="none" opacity="1.000000" stroke="#000000" stroke-linecap="round" stroke-linejoin="round" stroke-width="3.000000"
	d="
M260.000000,57.000000 
	C261.166595,58.500046 262.333221,60.000092 263.502411,61.502151 
	C262.677032,64.203087 262.032867,67.055153 258.500000,67.500000 
"/>
</svg>