<?xml version="1.0" encoding="UTF-8"?>
<svg version="1.1" xmlns="http://www.w3.org/2000/svg" width="256" height="256">
<path d="M0 0 C2.97 0 5.94 0 9 0 C9.00142502 1.4266095 9.00285004 2.85321899 9.00431824 4.32305908 C9.02102288 17.79945502 9.06360831 31.27558954 9.13209057 44.75181961 C9.16663867 51.67930825 9.19208263 58.6066 9.19555664 65.53417969 C9.19893856 72.22580611 9.22840212 78.91686326 9.27343178 85.60836029 C9.28637264 88.15504827 9.29072665 90.70179552 9.28615379 93.24851227 C9.28122388 96.82929692 9.3074495 100.40864969 9.34057617 103.98925781 C9.32763771 105.55157135 9.32763771 105.55157135 9.31443787 107.14544678 C9.42088658 114.05661894 10.97888878 119.25319319 13.92943287 125.50428391 C15 128 15 128 15 131 C16.07636719 131.06058594 17.15273437 131.12117187 18.26171875 131.18359375 C27.183718 131.69298302 36.09275423 132.27192948 45 133 C41.82264629 137.37981089 38.20671372 140.39759856 33.9375 143.625 C32.69521968 144.57369704 31.45428711 145.52416205 30.21484375 146.4765625 C29.39681274 147.096521 29.39681274 147.096521 28.56225586 147.72900391 C28.04671143 148.14843262 27.53116699 148.56786133 27 149 C26.14112183 149.68485474 26.14112183 149.68485474 25.26489258 150.38354492 C23.78769376 151.92693942 23.78769376 151.92693942 24.01074219 154.04956055 C24.18766602 154.82082275 24.36458984 155.59208496 24.546875 156.38671875 C24.7325 157.24330078 24.918125 158.09988281 25.109375 158.98242188 C25.32078125 159.87509766 25.5321875 160.76777344 25.75 161.6875 C26.14335919 163.44079506 26.53401976 165.19469792 26.921875 166.94921875 C27.11072266 167.79532715 27.29957031 168.64143555 27.49414062 169.51318359 C28.20258321 172.99590376 28.6216349 176.46722153 29 180 C25.55044666 178.72199484 22.61909971 177.23881563 19.57421875 175.1796875 C18.77822266 174.64472656 17.98222656 174.10976562 17.16210938 173.55859375 C16.34548828 173.00300781 15.52886719 172.44742188 14.6875 171.875 C13.43356445 171.03001953 13.43356445 171.03001953 12.15429688 170.16796875 C10.10000948 168.78279211 8.04872962 167.39337781 6 166 C3.87416655 167.20688527 1.74930633 168.41543153 -0.375 169.625 C-1.00825195 169.98456787 -1.64150391 170.34413574 -2.29394531 170.71459961 C-6.97419497 173.38286221 -11.5657872 176.17024515 -16.109375 179.06640625 C-16.73328125 179.37449219 -17.3571875 179.68257812 -18 180 C-18.66 179.67 -19.32 179.34 -20 179 C-19.80776855 178.29391602 -19.61553711 177.58783203 -19.41748047 176.86035156 C-18.55521822 173.66066944 -17.71491569 170.45561708 -16.875 167.25 C-16.42060547 165.58324219 -16.42060547 165.58324219 -15.95703125 163.8828125 C-15.67988281 162.81289062 -15.40273437 161.74296875 -15.1171875 160.640625 C-14.72442627 159.16384277 -14.72442627 159.16384277 -14.32373047 157.65722656 C-13.95016862 154.59097679 -14.2719168 153.51676554 -16 151 C-17.42011897 149.3957632 -17.42011897 149.3957632 -19.08203125 147.94140625 C-19.68466797 147.39033203 -20.28730469 146.83925781 -20.90820312 146.27148438 C-21.53662109 145.70751953 -22.16503906 145.14355469 -22.8125 144.5625 C-24.04899675 143.4397041 -25.28468733 142.31601968 -26.51953125 141.19140625 C-27.34094604 140.45192749 -27.34094604 140.45192749 -28.17895508 139.69750977 C-30.50981398 137.52477053 -32.74681348 135.25318652 -35 133 C-25.76 132.34 -16.52 131.68 -7 131 C0.40721406 117.65328173 -0.13675403 105.03502671 -0.1953125 90.0390625 C-0.18404786 87.43589047 -0.17016094 84.83272859 -0.15377808 82.22958374 C-0.12154784 76.11356598 -0.11546738 69.99805141 -0.12250316 63.88196981 C-0.12903148 56.90947721 -0.10147445 49.93724304 -0.07130075 42.96482778 C-0.01007349 28.64319292 0.00794195 14.32175269 0 0 Z M4 128 C3.3291288 129.6232687 2.66342971 131.24867578 2 132.875 C1.62875 133.77992188 1.2575 134.68484375 0.875 135.6171875 C-0.11490226 137.88983858 -0.11490226 137.88983858 0 140 C-5.94 140.495 -5.94 140.495 -12 141 C-10.576875 142.7015625 -10.576875 142.7015625 -9.125 144.4375 C-8.59132812 145.07558594 -8.05765625 145.71367187 -7.5078125 146.37109375 C-6.0777243 148.10805004 -6.0777243 148.10805004 -4 149 C-4.66 153.29 -5.32 157.58 -6 162 C-4.185 160.906875 -2.37 159.81375 -0.5 158.6875 C5.21464648 155.77613755 5.21464648 155.77613755 8.5078125 156.71484375 C10.47783107 158.02697789 12.20548627 159.46316004 14 161 C14.66 161 15.32 161 16 161 C15.34 156.71 14.68 152.42 14 148 C16.64 146.02 19.28 144.04 22 142 C20.16262173 139.72783152 20.16262173 139.72783152 17.3984375 139.8046875 C16.40070313 139.82789063 15.40296875 139.85109375 14.375 139.875 C13.37210938 139.89304688 12.36921875 139.91109375 11.3359375 139.9296875 C10.17964844 139.96449219 10.17964844 139.96449219 9 140 C8.80664062 139.30132812 8.61328125 138.60265625 8.4140625 137.8828125 C8.02347656 136.51769531 8.02347656 136.51769531 7.625 135.125 C7.36976563 134.22007812 7.11453125 133.31515625 6.8515625 132.3828125 C6.1395685 129.85430274 6.1395685 129.85430274 4 128 Z " fill="#FFFFFF" transform="translate(181,38)"/>
<path d="M0 0 C2.97 0 5.94 0 9 0 C9.00546844 1.46672905 9.00546844 1.46672905 9.01104736 2.96308899 C9.04812463 12.21631268 9.10603527 21.4692075 9.18390274 30.72218037 C9.22326969 35.47829298 9.25551076 40.23422343 9.27099609 44.99047852 C9.28623409 49.58782407 9.32080494 54.18466845 9.36830902 58.78178978 C9.38304958 60.52824718 9.39103677 62.27477615 9.39188385 64.02129555 C9.40051677 72.90252824 9.45328594 80.68876171 13.14642334 88.95378113 C14 91 14 91 14 94 C14.57363281 93.97679687 15.14726563 93.95359375 15.73828125 93.9296875 C25.23967703 93.72783691 34.5790537 94.90658447 44 96 C40.9457178 99.08643254 37.86016405 102.10353543 34.625 105 C33.91601562 105.639375 33.20703125 106.27875 32.4765625 106.9375 C29.42981749 109.47485231 26.24702971 111.72470911 23 114 C23.39832031 115.88332031 23.39832031 115.88332031 23.8046875 117.8046875 C25.57679304 126.19538949 27.34465016 134.58530497 29 143 C25.49812544 141.71870467 22.65853185 140.21525559 19.63671875 138.0390625 C18.83169922 137.48605469 18.02667969 136.93304688 17.19726562 136.36328125 C15.52090214 135.20222016 13.85923548 134.01965435 12.21289062 132.81640625 C7.91592041 129.72643892 7.91592041 129.72643892 2.88647461 129.37719727 C0.75782701 130.41649188 -1.07487817 131.62167993 -3 133 C-4.3141815 133.78290285 -5.63319945 134.55774679 -6.95703125 135.32421875 C-8.24405435 136.10892545 -9.52921999 136.89668683 -10.8125 137.6875 C-17.59883721 141.86627907 -17.59883721 141.86627907 -21 143 C-20.37713159 140.31199023 -19.75176793 137.6246008 -19.125 134.9375 C-18.86396484 133.80924805 -18.86396484 133.80924805 -18.59765625 132.65820312 C-17.77355435 129.13287833 -16.90671616 125.70764967 -15.8046875 122.25390625 C-14.94474869 118.77658087 -14.59635943 117.2804184 -16 114 C-18.04308225 111.76368417 -20.32929208 109.89425876 -22.6875 108 C-23.60692383 107.23816406 -23.60692383 107.23816406 -24.54492188 106.4609375 C-26.9483538 104.47294503 -29.37094663 102.50912778 -31.79541016 100.546875 C-33.21459628 99.38583645 -34.60993718 98.19575296 -36 97 C-36 96.67 -36 96.34 -36 96 C-29.86581065 94.97620122 -23.77155849 94.68392327 -17.5625 94.4375 C-16.03592773 94.37272461 -16.03592773 94.37272461 -14.47851562 94.30664062 C-11.98578972 94.20131418 -9.49297662 94.09918328 -7 94 C-6.81824219 93.443125 -6.63648437 92.88625 -6.44921875 92.3125 C-6.19785156 91.549375 -5.94648437 90.78625 -5.6875 90 C-5.44386719 89.2575 -5.20023438 88.515 -4.94921875 87.75 C-4.20029467 85.58027757 -3.35137717 83.44507756 -2.46769714 81.32666016 C-0.93342698 77.22721428 -0.55858531 73.37856 -0.56762695 69.0234375 C-0.5574353 68.27124435 -0.54724365 67.51905121 -0.53674316 66.74406433 C-0.50683964 64.28763157 -0.49738242 61.83159014 -0.48828125 59.375 C-0.47141769 57.66006192 -0.45326521 55.94513608 -0.43388367 54.23022461 C-0.38655942 49.73899153 -0.35663675 45.24780808 -0.33044434 40.75640869 C-0.30054971 36.16432907 -0.25405013 31.57242011 -0.20898438 26.98046875 C-0.12315147 17.98706877 -0.0557176 8.99363348 0 0 Z M3 91 C2.3291288 92.6232687 1.66342971 94.24867578 1 95.875 C0.62875 96.77992188 0.2575 97.68484375 -0.125 98.6171875 C-1.11490226 100.88983858 -1.11490226 100.88983858 -1 103 C-1.69867188 102.97679687 -2.39734375 102.95359375 -3.1171875 102.9296875 C-4.48230469 102.90261719 -4.48230469 102.90261719 -5.875 102.875 C-6.77992187 102.85179687 -7.68484375 102.82859375 -8.6171875 102.8046875 C-11.18806994 102.75675164 -11.18806994 102.75675164 -13 105 C-12.39929688 105.36609375 -11.79859375 105.7321875 -11.1796875 106.109375 C-8.62592178 107.92730992 -6.80421167 109.42194399 -5 112 C-4.88415014 116.22851993 -5.78163443 119.96747484 -7 124 C-4.25124812 122.95089303 -1.94958955 121.96597294 0.5 120.3125 C3 119 3 119 5.375 119.0625 C8.879108 120.31396714 11.81970029 122.06687665 15 124 C14.7628125 123.14277344 14.525625 122.28554687 14.28125 121.40234375 C13.4714709 117.81097344 12.90558663 114.68641308 13 111 C15.18122113 107.84188125 17.80569624 106.05641873 21 104 C21 103.67 21 103.34 21 103 C16.71 102.67 12.42 102.34 8 102 C6.92578125 98.14257812 6.92578125 98.14257812 5.8515625 94.28515625 C5.23339896 91.83254913 5.23339896 91.83254913 3 91 Z " fill="#FFFFFF" transform="translate(66,38)"/>
<path d="M0 0 C2.97 0 5.94 0 9 0 C9.00546844 1.22576248 9.00546844 1.22576248 9.01104736 2.47628784 C9.04906718 10.21412663 9.10607677 17.95149136 9.18390274 25.68902397 C9.22324889 29.66607072 9.25549978 33.64290033 9.27099609 37.62011719 C9.28624834 41.46537751 9.32084279 45.31004034 9.36830902 49.15503311 C9.38303526 50.61482648 9.39103594 52.0747052 9.39188385 53.5345726 C9.40091761 61.29612854 9.73723996 68.04680636 13.14642334 75.16677856 C14 77 14 77 14 79 C15.21816406 79.06058594 16.43632812 79.12117188 17.69140625 79.18359375 C19.31511277 79.26806403 20.93881022 79.35270872 22.5625 79.4375 C23.36236328 79.47681641 24.16222656 79.51613281 24.98632812 79.55664062 C29.71371506 79.80748156 34.32476901 80.25321814 39 81 C35.46070159 84.71692119 31.77944288 87.64459692 27.625 90.6875 C23.58759201 93.85135176 23.58759201 93.85135176 21.33984375 98.34375 C21.59593252 101.0394213 22.23591562 103.39999065 23 106 C23.41713718 108.01082835 23.79292325 110.0273921 24.16967773 112.04614258 C24.73548858 115.04047404 25.36802786 118.01899933 26 121 C20.79557755 119.21590821 16.61828531 116.17271339 12.171875 113.01367188 C9.6484594 111.31036634 7.70318175 110.02531915 4.61328125 109.9140625 C0.57827997 111.59078949 -3.08642987 113.79187721 -6.8125 116.0625 C-7.99489258 116.77116211 -7.99489258 116.77116211 -9.20117188 117.49414062 C-11.13812608 118.65631315 -13.07078295 119.82504417 -15 121 C-16.5524714 116.01708981 -14.78463601 111.77148067 -13.3828125 106.93164062 C-11.82875551 101.41292423 -11.82875551 101.41292423 -13 96 C-14.89696293 93.9767642 -16.715834 92.22226527 -18.8125 90.4375 C-19.88216627 89.49944526 -20.9511893 88.56065647 -22.01953125 87.62109375 C-23.49486328 86.32365234 -23.49486328 86.32365234 -25 85 C-26.34649026 83.67995472 -27.68589447 82.35228777 -29 81 C-25.37656382 79.79218794 -21.90501895 79.68389281 -18.125 79.5 C-15.41158705 79.36655346 -12.7105837 79.19634007 -10 79 C-8.63488281 79.01546875 -8.63488281 79.01546875 -7.2421875 79.03125 C-3.90299376 77.49545358 -3.24809599 75.26385212 -1.85171509 71.95376587 C-0.07955157 65.80786546 -0.39418793 59.37449842 -0.390625 53.02734375 C-0.375621 51.49319228 -0.35888923 49.95905683 -0.34051514 48.42494202 C-0.29707781 44.41536663 -0.2768955 40.40600904 -0.26177979 36.39624023 C-0.24212279 32.29332729 -0.20016287 28.19064667 -0.16015625 24.08789062 C-0.08511052 16.05865496 -0.03466465 8.02951114 0 0 Z M4 80 C3.01 82.31 2.02 84.62 1 87 C-3.455 87.495 -3.455 87.495 -8 88 C-7.195625 88.804375 -6.39125 89.60875 -5.5625 90.4375 C-2 94 -2 94 -1.90234375 95.84765625 C-1.93489583 97.8984375 -1.96744792 99.94921875 -2 102 C-0.80375 101.443125 0.3925 100.88625 1.625 100.3125 C5.18280143 98.94508878 5.70954506 98.8910794 9.5 100.3125 C10.325 100.869375 11.15 101.42625 12 102 C11.505 97.05 11.505 97.05 11 92 C12.32 91.34 13.64 90.68 15 90 C15.66 89.34 16.32 88.68 17 88 C13.7 87.67 10.4 87.34 7 87 C6.87625 86.030625 6.7525 85.06125 6.625 84.0625 C6.41875 83.051875 6.2125 82.04125 6 81 C5.34 80.67 4.68 80.34 4 80 Z " fill="#FFFFFF" transform="translate(132,38)"/>
</svg>
